# xmcd
#
# Track frame offsets:
#	150
#	18305
#	39377
#	61345
#	74496
#	92878
#	111268
#	134900
#	156399
#	175823
#	191634
#	215909
#	233800
#
# Disc length: 3366 seconds
# Revision: 0
# Processed by: cddbd v1.5.2PL0 Copyright (c) Steve Scherf et al.
# Submitted via: dBpowerAMP V12.0
#
DISCID=c60d240d
DTITLE=Luke O'Shea - Sing You Up
DYEAR=2014
DGENRE=Country
TTITLE0=Sing You Up
TTITLE1=Dad's Bottom Drawer
TTITLE2=Three Brothers (The Great War)
TTITLE3=Fill It Up With Love
TTITLE4=Seventeen
TTITLE5=Wayne and Wanita
TTITLE6=White Dove Black Crow
TTITLE7=Passenger Seat
TTITLE8=Perfect Plan
TTITLE9=Lady Of The Land
TTITLE10=Truckstop Flowers
TTITLE11=Hillbilly Happy
TTITLE12=Watch Things Grow
EXTD=
EXTT0=
EXTT1=
EXTT2=
EXTT3=
EXTT4=
EXTT5=
EXTT6=
EXTT7=
EXTT8=
EXTT9=
EXTT10=
EXTT11=
EXTT12=
PLAYORDER=
